<?xml version="1.0" encoding="utf-8"?>
<!-- Generator: Adobe Illustrator 24.0.1, SVG Export Plug-In . SVG Version: 6.00 Build 0)  -->
<svg version="1.1" id="Layer_1" xmlns="http://www.w3.org/2000/svg" xmlns:xlink="http://www.w3.org/1999/xlink" x="0px" y="0px"
	 viewBox="0 0 931.2 151.6" style="enable-background:new 0 0 931.2 151.6;" xml:space="preserve">
<style type="text/css">
	.st0{fill:#0F5C47;}
</style>
<g>
	<g>
		<g>
			<path class="st0" d="M16.6,122c-5.7,0-11.2-2.9-14.2-8.2c-4.6-7.9-1.9-17.9,6-22.5l102.6-59.6c7.9-4.6,17.9-1.9,22.5,6
				s1.9,17.9-6,22.5L24.9,119.8C22.3,121.3,19.5,122,16.6,122z"/>
		</g>
		<g>
			<path class="st0" d="M68.1,151.6c-5.7,0-11.2-2.9-14.2-8.2c-4.6-7.9-1.9-17.9,6-22.5l51.3-29.8c7.9-4.6,17.9-1.9,22.5,6
				c4.6,7.9,1.9,17.9-6,22.5l-51.3,29.8C73.8,150.8,70.9,151.6,68.1,151.6z"/>
		</g>
		<g>
			<path class="st0" d="M16.5,62.7c-5.7,0-11.2-2.9-14.2-8.2c-4.6-7.9-1.9-17.9,6-22.5L59.5,2.2c7.9-4.6,17.9-1.9,22.5,6
				s1.9,17.9-6,22.5L24.7,60.5C22.1,62,19.3,62.7,16.5,62.7z"/>
		</g>
	</g>
	<g>
		<path class="st0" d="M891.4,76.9c0-25.5-16.6-44.2-40-44.2c-24.6,0-43,18.2-43,42.3v0.3c0,25.9,18.8,43.7,44.2,43.7
			c15.3,0,26.6-6,34.5-15.8L872.2,90c-5.1,6.5-11.3,9.7-19.3,9.7c-10.7,0-18.3-5.7-20.7-16.6H891C891.2,81,891.4,78.8,891.4,76.9z
			 M831.9,68.2c1.5-9.7,8.4-16.8,18.3-16.8c10.1,0,16.4,6.8,17.8,16.8H831.9z"/>
		<rect x="904.9" y="0.1" class="st0" width="25.3" height="117.2"/>
		<path class="st0" d="M318.8,41.8c5.6,6,8.4,14.1,8.4,24.4v51h-25.3V70.3c0-4.9-1.1-8.7-3.2-11.4c-2.2-2.7-5.4-4-9.8-4
			c-4.9,0-8.9,1.7-11.8,5.1c-2.9,3.4-4.4,7.7-4.4,13v44.3h-24.4V70.3c0-4.9-1.1-8.7-3.2-11.4c-2.2-2.7-5.4-4-9.8-4
			c-4.8,0-8.7,1.7-11.7,5.1c-3,3.4-4.5,7.7-4.5,13v44.3h-25.3V34.8h25.1l0,9.1c2.6-3.2,5.9-5.8,9.8-7.9c4-2.1,8.7-3.2,14.1-3.2
			c3.3,0,6.2,0.3,8.8,1c2.6,0.7,4.8,1.6,6.8,2.7c1.9,1.1,3.6,2.3,5.1,3.7c1.5,1.3,2.7,2.7,3.6,3.9c3.4-3.6,7.5-6.4,12.4-8.4
			c4.9-2,9.9-3,15.2-3C305.1,32.9,313.2,35.8,318.8,41.8z"/>
		<path class="st0" d="M710.4,33.7c1.6,0.2,3.1,0.6,4.7,1.2l-4,22.3c-2.6-0.8-5.6-1.2-9.1-1.2c-6,0-10.8,1.8-14.5,5.4
			c-3.7,3.6-5.5,8.6-5.5,15.2v40.8h-25.3V34.7h25.1v10.6c2.1-2.8,5-5.5,8.7-8.1c3.7-2.6,8.5-3.9,14.3-3.9
			C706.9,33.3,708.8,33.4,710.4,33.7z"/>
		<path class="st0" d="M748.6,67.6c-0.9,2.6-1.3,5.3-1.3,8.2c0,2.7,0.4,5.2,1.3,7.8c0.9,2.6,2.1,4.9,3.8,6.9c1.7,2,3.7,3.6,6,4.9
			c2.3,1.3,5,1.9,8,1.9c4.2,0,7.8-0.8,10.7-2.5c2.9-1.7,5.2-3.5,6.9-5.4l14.5,16.2c-3.3,3.7-7.7,6.8-13.2,9.5
			c-5.5,2.6-11.9,4-19.4,4c-6.5,0-12.5-1.1-17.8-3.2c-5.4-2.1-9.9-5.1-13.7-8.9c-3.8-3.8-6.8-8.4-8.9-13.7
			c-2.1-5.3-3.2-11.1-3.2-17.4c0-6,1.1-11.6,3.3-16.8c2.2-5.2,5.2-9.8,9-13.7c3.8-3.9,8.4-7,13.8-9.2c5.3-2.2,11.2-3.4,17.5-3.4
			c7.3,0,13.7,1.2,19.1,3.6c5.4,2.4,10,5.6,13.6,9.6l-15,16.2c-1.8-2.1-4.1-3.9-6.7-5.5c-2.7-1.6-6.2-2.4-10.5-2.4
			c-3,0-5.7,0.6-8,1.8c-2.3,1.2-4.4,2.8-6,4.7C750.8,62.8,749.5,65,748.6,67.6z"/>
		<path class="st0" d="M531.1,59.1c-2.2-5.2-5.2-9.8-9-13.7c-3.8-3.9-7.4-7-12.8-9.2c-5.3-2.2-9.3-3.4-17.5-3.4
			c-11.3,0-19.7,7.2-19.7,7.2v-5.3h-25v116.8h25c0,0,0-39.2,0-39.2c3.8,3.8,13.7,6.8,20.1,6.8c6.5,0,11-1.1,16.3-3.2
			c5.4-2.1,9.9-5.1,13.7-8.9c3.8-3.8,6.8-8.4,8.9-13.7c2.1-5.3,3.2-11.1,3.2-17.4C534.4,69.9,533.3,64.3,531.1,59.1z M509.2,75.9
			c0,12.9-8.6,21.2-18.8,21.2s-18.6-8.5-18.6-21.2v-0.3c0-12.8,8.5-21.2,18.6-21.2s18.8,8.5,18.8,21.2L509.2,75.9L509.2,75.9z"/>
		<path class="st0" d="M611,34.7c0,0,0,5,0,5c-3.8-3.8-13.7-6.8-20.1-6.8c-6.5,0-11,1.1-16.3,3.2c-5.4,2.1-9.9,5.1-13.7,9
			c-3.8,3.8-6.8,8.4-8.9,13.7c-2.1,5.3-3.2,11.1-3.2,17.4c0,6,1.1,11.6,3.3,16.8c2.2,5.2,5.2,9.8,9,13.7c3.8,3.9,7.4,7,12.8,9.2
			c5.3,2.2,9.3,3.4,17.5,3.4c11.3,0,19.7-7.2,19.7-7.2v5.3h25V34.7L611,34.7z M611.3,76.3c0,12.8-8.5,21.2-18.6,21.2
			s-18.8-8.4-18.8-21.2V76c0-12.9,8.6-21.2,18.8-21.2c10.2,0,18.6,8.5,18.6,21.2V76.3z"/>
		<polygon class="st0" points="408.3,34.8 434,34.8 383,151.5 356,151.5 370.7,117.2 335.6,34.8 362.8,34.8 384.8,89.9 		"/>
		<path class="st0" d="M891.4,76.9c0-25.5-16.6-44.2-40-44.2c-24.6,0-43,18.2-43,42.3v0.3c0,25.9,18.8,43.7,44.2,43.7
			c15.3,0,26.6-6,34.5-15.8L872.2,90c-5.1,6.5-11.3,9.7-19.3,9.7c-10.7,0-18.3-5.7-20.7-16.6H891C891.2,81,891.4,78.8,891.4,76.9z
			 M831.9,68.2c1.5-9.7,8.4-16.8,18.3-16.8c10.1,0,16.4,6.8,17.8,16.8H831.9z"/>
		<rect x="904.9" y="0.1" class="st0" width="25.3" height="117.2"/>
		<path class="st0" d="M318.8,41.8c5.6,6,8.4,14.1,8.4,24.4v51h-25.3V70.3c0-4.9-1.1-8.7-3.2-11.4c-2.2-2.7-5.4-4-9.8-4
			c-4.9,0-8.9,1.7-11.8,5.1c-2.9,3.4-4.4,7.7-4.4,13v44.3h-24.4V70.3c0-4.9-1.1-8.7-3.2-11.4c-2.2-2.7-5.4-4-9.8-4
			c-4.8,0-8.7,1.7-11.7,5.1c-3,3.4-4.5,7.7-4.5,13v44.3h-25.3V34.8h25.1l0,9.1c2.6-3.2,5.9-5.8,9.8-7.9c4-2.1,8.7-3.2,14.1-3.2
			c3.3,0,6.2,0.3,8.8,1c2.6,0.7,4.8,1.6,6.8,2.7c1.9,1.1,3.6,2.3,5.1,3.7c1.5,1.3,2.7,2.7,3.6,3.9c3.4-3.6,7.5-6.4,12.4-8.4
			c4.9-2,9.9-3,15.2-3C305.1,32.9,313.2,35.8,318.8,41.8z"/>
		<path class="st0" d="M710.4,33.7c1.6,0.2,3.1,0.6,4.7,1.2l-4,22.3c-2.6-0.8-5.6-1.2-9.1-1.2c-6,0-10.8,1.8-14.5,5.4
			c-3.7,3.6-5.5,8.6-5.5,15.2v40.8h-25.3V34.7h25.1v10.6c2.1-2.8,5-5.5,8.7-8.1c3.7-2.6,8.5-3.9,14.3-3.9
			C706.9,33.3,708.8,33.4,710.4,33.7z"/>
		<path class="st0" d="M748.6,67.6c-0.9,2.6-1.3,5.3-1.3,8.2c0,2.7,0.4,5.2,1.3,7.8c0.9,2.6,2.1,4.9,3.8,6.9c1.7,2,3.7,3.6,6,4.9
			c2.3,1.3,5,1.9,8,1.9c4.2,0,7.8-0.8,10.7-2.5c2.9-1.7,5.2-3.5,6.9-5.4l14.5,16.2c-3.3,3.7-7.7,6.8-13.2,9.5
			c-5.5,2.6-11.9,4-19.4,4c-6.5,0-12.5-1.1-17.8-3.2c-5.4-2.1-9.9-5.1-13.7-8.9c-3.8-3.8-6.8-8.4-8.9-13.7
			c-2.1-5.3-3.2-11.1-3.2-17.4c0-6,1.1-11.6,3.3-16.8c2.2-5.2,5.2-9.8,9-13.7c3.8-3.9,8.4-7,13.8-9.2c5.3-2.2,11.2-3.4,17.5-3.4
			c7.3,0,13.7,1.2,19.1,3.6c5.4,2.4,10,5.6,13.6,9.6l-15,16.2c-1.8-2.1-4.1-3.9-6.7-5.5c-2.7-1.6-6.2-2.4-10.5-2.4
			c-3,0-5.7,0.6-8,1.8c-2.3,1.2-4.4,2.8-6,4.7C750.8,62.8,749.5,65,748.6,67.6z"/>
		<path class="st0" d="M531.1,59.1c-2.2-5.2-5.2-9.8-9-13.7c-3.8-3.9-7.4-7-12.8-9.2c-5.3-2.2-9.3-3.4-17.5-3.4
			c-11.3,0-19.7,7.2-19.7,7.2v-5.3h-25v116.8h25c0,0,0-39.2,0-39.2c3.8,3.8,13.7,6.8,20.1,6.8c6.5,0,11-1.1,16.3-3.2
			c5.4-2.1,9.9-5.1,13.7-8.9c3.8-3.8,6.8-8.4,8.9-13.7c2.1-5.3,3.2-11.1,3.2-17.4C534.4,69.9,533.3,64.3,531.1,59.1z M509.2,75.9
			c0,12.9-8.6,21.2-18.8,21.2s-18.6-8.5-18.6-21.2v-0.3c0-12.8,8.5-21.2,18.6-21.2s18.8,8.5,18.8,21.2L509.2,75.9L509.2,75.9z"/>
		<polygon class="st0" points="408.3,34.8 434,34.8 383,151.5 356,151.5 370.7,117.2 335.6,34.8 362.8,34.8 384.8,89.9 		"/>
	</g>
</g>
</svg>
