<?xml version="1.0" encoding="utf-8"?>
<!-- Generator: Adobe Illustrator 23.0.3, SVG Export Plug-In . SVG Version: 6.00 Build 0)  -->
<svg version="1.1" id="Layer_1" xmlns="http://www.w3.org/2000/svg" xmlns:xlink="http://www.w3.org/1999/xlink" x="0px" y="0px"
	 viewBox="0 0 1206.47 454.84" style="enable-background:new 0 0 1206.47 454.84;" xml:space="preserve">
<style type="text/css">
	.st0{fill:#FFFFFF;}
</style>
<g>
	<g>
		<path class="st0" d="M152.48,273.61c-5.67,0-11.19-2.93-14.25-8.19c-4.57-7.86-1.9-17.94,5.96-22.51l102.55-59.6
			c7.86-4.57,17.94-1.9,22.51,5.96c4.57,7.86,1.9,17.94-5.96,22.51l-102.55,59.6C158.14,272.89,155.29,273.61,152.48,273.61z"/>
	</g>
	<g>
		<path class="st0" d="M203.93,303.12c-5.67,0-11.19-2.93-14.25-8.19c-4.57-7.86-1.9-17.94,5.96-22.51l51.28-29.8
			c7.86-4.57,17.94-1.9,22.51,5.96c4.57,7.86,1.9,17.94-5.96,22.51l-51.28,29.8C209.58,302.4,206.74,303.12,203.93,303.12z"/>
	</g>
	<g>
		<path class="st0" d="M152.31,214.3c-5.67,0-11.19-2.94-14.25-8.19c-4.57-7.86-1.9-17.94,5.96-22.51l51.28-29.8
			c7.86-4.57,17.94-1.9,22.51,5.96c4.57,7.86,1.9,17.94-5.96,22.51l-51.28,29.8C157.97,213.58,155.12,214.3,152.31,214.3z"/>
	</g>
</g>
<g>
	<path class="st0" d="M1027.21,228.46c0-25.47-16.6-44.17-40.01-44.17c-24.6,0-42.95,18.15-42.95,42.28v0.3
		c0,25.87,18.77,43.7,44.16,43.7c15.3,0,26.64-5.99,34.54-15.78l-14.89-13.19c-5.12,6.46-11.3,9.73-19.35,9.73
		c-10.71,0-18.28-5.68-20.66-16.55h58.82C1027.05,232.56,1027.21,230.36,1027.21,228.46z M967.74,219.78
		c1.53-9.7,8.36-16.81,18.3-16.81c10.09,0,16.37,6.84,17.82,16.81H967.74z"/>
	<rect x="1040.73" y="151.62" class="st0" width="25.29" height="117.18"/>
	<path class="st0" d="M454.59,193.38c5.56,5.98,8.35,14.12,8.35,24.42v50.95h-25.3v-46.9c0-4.92-1.09-8.72-3.24-11.42
		c-2.16-2.69-5.42-4.03-9.75-4.03c-4.92,0-8.85,1.7-11.76,5.09c-2.93,3.4-4.4,7.73-4.4,12.99v44.27h-24.42v-46.9
		c0-4.92-1.08-8.72-3.24-11.42c-2.16-2.69-5.42-4.03-9.75-4.03c-4.8,0-8.69,1.7-11.68,5.09c-2.99,3.4-4.49,7.73-4.49,12.99v44.27
		h-25.27v-82.38h25.1l0.01,9.14c2.57-3.16,5.86-5.8,9.83-7.91c3.99-2.12,8.66-3.16,14.07-3.16c3.28,0,6.2,0.35,8.78,1.04
		c2.57,0.72,4.83,1.62,6.76,2.73c1.93,1.11,3.63,2.34,5.1,3.69c1.46,1.34,2.66,2.66,3.6,3.94c3.39-3.62,7.52-6.43,12.38-8.42
		c4.86-2,9.92-2.99,15.18-2.99C440.98,184.43,449.03,187.42,454.59,193.38z"/>
	<path class="st0" d="M846.22,185.23c1.59,0.23,3.13,0.64,4.65,1.23l-4.03,22.31c-2.57-0.83-5.62-1.24-9.13-1.24
		c-5.96,0-10.79,1.79-14.48,5.36c-3.69,3.57-5.55,8.63-5.55,15.19l0,40.75h-25.29v-82.59h25.11v10.57c2.12-2.82,5.01-5.5,8.69-8.08
		c3.69-2.57,8.46-3.87,14.32-3.87C842.74,184.87,844.64,185,846.22,185.23z"/>
	<path class="st0" d="M884.47,219.17c-0.87,2.58-1.29,5.31-1.29,8.17c0,2.65,0.42,5.25,1.29,7.83c0.87,2.59,2.13,4.89,3.78,6.9
		c1.65,2,3.67,3.64,6.03,4.9c2.35,1.26,5.02,1.89,8.02,1.89c4.23,0,7.79-0.82,10.68-2.49c2.86-1.67,5.15-3.48,6.89-5.42l14.46,16.18
		c-3.33,3.67-7.74,6.84-13.17,9.47c-5.46,2.64-11.91,3.97-19.39,3.97c-6.53,0-12.47-1.07-17.8-3.2c-5.36-2.12-9.92-5.1-13.7-8.95
		c-3.78-3.84-6.75-8.41-8.86-13.69c-2.13-5.27-3.19-11.07-3.19-17.39c0-5.97,1.1-11.56,3.28-16.79c2.16-5.21,5.19-9.78,9.03-13.69
		c3.84-3.89,8.43-6.96,13.79-9.21c5.33-2.24,11.16-3.36,17.46-3.36c7.34,0,13.73,1.21,19.11,3.62c5.41,2.41,9.95,5.63,13.62,9.64
		l-15,16.2c-1.82-2.07-4.06-3.91-6.7-5.52c-2.66-1.6-6.17-2.41-10.51-2.41c-3,0-5.66,0.6-8.02,1.81c-2.35,1.21-4.37,2.79-6.03,4.74
		C886.6,214.33,885.34,216.58,884.47,219.17z"/>
	<path class="st0" d="M666.92,210.68c-2.16-5.21-5.19-9.78-9.03-13.69c-3.84-3.89-7.4-6.96-12.75-9.2
		c-5.33-2.24-9.26-3.36-17.45-3.36c-11.3,0-19.66,7.16-19.69,7.18v-5.32l-24.95,0v116.79l24.95,0c0,0,0.02-39.21,0.03-39.21
		c3.8,3.83,13.68,6.83,20.07,6.83c6.53,0,11.02-1.06,16.34-3.19c5.36-2.12,9.92-5.1,13.71-8.95c3.78-3.84,6.75-8.41,8.86-13.69
		c2.13-5.27,3.19-11.07,3.19-17.39C670.2,221.5,669.1,215.91,666.92,210.68z M645.08,227.51c0,12.89-8.6,21.22-18.78,21.22
		c-10.18,0-18.64-8.47-18.64-21.22v-0.3c0-12.77,8.46-21.22,18.64-21.22c10.18,0,18.78,8.45,18.78,21.22V227.51z"/>
	<path class="st0" d="M746.78,186.23c0,0-0.03,5.02-0.03,5.01c-3.8-3.83-13.68-6.83-20.07-6.83c-6.53,0-11.01,1.07-16.34,3.19
		c-5.36,2.12-9.92,5.1-13.71,8.95c-3.78,3.84-6.75,8.41-8.86,13.69c-2.13,5.27-3.19,11.07-3.19,17.39c0,5.97,1.09,11.56,3.28,16.79
		c2.16,5.21,5.19,9.78,9.02,13.69c3.84,3.89,7.41,6.96,12.76,9.21c5.33,2.24,9.26,3.36,17.45,3.36c11.3,0,19.66-7.16,19.69-7.17
		v5.31h24.95v-82.54L746.78,186.23z M747.11,227.89c0,12.77-8.46,21.22-18.64,21.22c-10.18,0-18.78-8.45-18.78-21.22v-0.3
		c0-12.9,8.6-21.22,18.78-21.22c10.18,0,18.64,8.46,18.64,21.22V227.89z"/>
	<polygon class="st0" points="544.12,186.36 569.82,186.36 518.78,303.07 491.85,303.07 506.53,268.74 471.44,186.36 498.66,186.36 
		520.61,241.46 	"/>
	<path class="st0" d="M1027.21,228.46c0-25.47-16.6-44.17-40.01-44.17c-24.6,0-42.95,18.15-42.95,42.28v0.3
		c0,25.87,18.77,43.7,44.16,43.7c15.3,0,26.64-5.99,34.54-15.78l-14.89-13.19c-5.12,6.46-11.3,9.73-19.35,9.73
		c-10.71,0-18.28-5.68-20.66-16.55h58.82C1027.05,232.56,1027.21,230.36,1027.21,228.46z M967.74,219.78
		c1.53-9.7,8.36-16.81,18.3-16.81c10.09,0,16.37,6.84,17.82,16.81H967.74z"/>
	<rect x="1040.73" y="151.62" class="st0" width="25.29" height="117.18"/>
	<path class="st0" d="M454.59,193.38c5.56,5.98,8.35,14.12,8.35,24.42v50.95h-25.3v-46.9c0-4.92-1.09-8.72-3.24-11.42
		c-2.16-2.69-5.42-4.03-9.75-4.03c-4.92,0-8.85,1.7-11.76,5.09c-2.93,3.4-4.4,7.73-4.4,12.99v44.27h-24.42v-46.9
		c0-4.92-1.08-8.72-3.24-11.42c-2.16-2.69-5.42-4.03-9.75-4.03c-4.8,0-8.69,1.7-11.68,5.09c-2.99,3.4-4.49,7.73-4.49,12.99v44.27
		h-25.27v-82.38h25.1l0.01,9.14c2.57-3.16,5.86-5.8,9.83-7.91c3.99-2.12,8.66-3.16,14.07-3.16c3.28,0,6.2,0.35,8.78,1.04
		c2.57,0.72,4.83,1.62,6.76,2.73c1.93,1.11,3.63,2.34,5.1,3.69c1.46,1.34,2.66,2.66,3.6,3.94c3.39-3.62,7.52-6.43,12.38-8.42
		c4.86-2,9.92-2.99,15.18-2.99C440.98,184.43,449.03,187.42,454.59,193.38z"/>
	<path class="st0" d="M846.22,185.23c1.59,0.23,3.13,0.64,4.65,1.23l-4.03,22.31c-2.57-0.83-5.62-1.24-9.13-1.24
		c-5.96,0-10.79,1.79-14.48,5.36c-3.69,3.57-5.55,8.63-5.55,15.19l0,40.75h-25.29v-82.59h25.11v10.57c2.12-2.82,5.01-5.5,8.69-8.08
		c3.69-2.57,8.46-3.87,14.32-3.87C842.74,184.87,844.64,185,846.22,185.23z"/>
	<path class="st0" d="M884.47,219.17c-0.87,2.58-1.29,5.31-1.29,8.17c0,2.65,0.42,5.25,1.29,7.83c0.87,2.59,2.13,4.89,3.78,6.9
		c1.65,2,3.67,3.64,6.03,4.9c2.35,1.26,5.02,1.89,8.02,1.89c4.23,0,7.79-0.82,10.68-2.49c2.86-1.67,5.15-3.48,6.89-5.42l14.46,16.18
		c-3.33,3.67-7.74,6.84-13.17,9.47c-5.46,2.64-11.91,3.97-19.39,3.97c-6.53,0-12.47-1.07-17.8-3.2c-5.36-2.12-9.92-5.1-13.7-8.95
		c-3.78-3.84-6.75-8.41-8.86-13.69c-2.13-5.27-3.19-11.07-3.19-17.39c0-5.97,1.1-11.56,3.28-16.79c2.16-5.21,5.19-9.78,9.03-13.69
		c3.84-3.89,8.43-6.96,13.79-9.21c5.33-2.24,11.16-3.36,17.46-3.36c7.34,0,13.73,1.21,19.11,3.62c5.41,2.41,9.95,5.63,13.62,9.64
		l-15,16.2c-1.82-2.07-4.06-3.91-6.7-5.52c-2.66-1.6-6.17-2.41-10.51-2.41c-3,0-5.66,0.6-8.02,1.81c-2.35,1.21-4.37,2.79-6.03,4.74
		C886.6,214.33,885.34,216.58,884.47,219.17z"/>
	<path class="st0" d="M666.92,210.68c-2.16-5.21-5.19-9.78-9.03-13.69c-3.84-3.89-7.4-6.96-12.75-9.2
		c-5.33-2.24-9.26-3.36-17.45-3.36c-11.3,0-19.66,7.16-19.69,7.18v-5.32l-24.95,0v116.79l24.95,0c0,0,0.02-39.21,0.03-39.21
		c3.8,3.83,13.68,6.83,20.07,6.83c6.53,0,11.02-1.06,16.34-3.19c5.36-2.12,9.92-5.1,13.71-8.95c3.78-3.84,6.75-8.41,8.86-13.69
		c2.13-5.27,3.19-11.07,3.19-17.39C670.2,221.5,669.1,215.91,666.92,210.68z M645.08,227.51c0,12.89-8.6,21.22-18.78,21.22
		c-10.18,0-18.64-8.47-18.64-21.22v-0.3c0-12.77,8.46-21.22,18.64-21.22c10.18,0,18.78,8.45,18.78,21.22V227.51z"/>
	<polygon class="st0" points="544.12,186.36 569.82,186.36 518.78,303.07 491.85,303.07 506.53,268.74 471.44,186.36 498.66,186.36 
		520.61,241.46 	"/>
</g>
</svg>
